<svg xmlns="http://www.w3.org/2000/svg" viewBox="0 0 64 64">
  <path opacity="0.15" fill="#334155" d="M52.5,31c0-0.8-0.7-1.5-1.5-1.5H35.8l-12.2-18c-0.4-0.6-1-1-1.7-1h-4.3c-0.8,0-1.5,0.7-1.5,1.5c0,0.3,0.1,0.6,0.3,0.8l10.3,16.7H13.2l-4.1-5.4c-0.3-0.4-0.8-0.6-1.3-0.6H4.3c-0.8,0-1.5,0.7-1.5,1.5c0,4.1,2.6,7.6,6.4,8.9c-3.8,1.3-6.4,4.8-6.4,8.9c0,0.8,0.7,1.5,1.5,1.5h3.5c0.5,0,1-0.2,1.3-0.6l4.1-5.4h13.5l-10.3,16.7c-0.2,0.3-0.3,0.5-0.3,0.8c0,0.8,0.7,1.5,1.5,1.5h4.3c0.7,0,1.3-0.4,1.7-1l12.2-18H51C51.8,32.5,52.5,31.8,52.5,31z"/>
</svg>
